<svg xmlns="http://www.w3.org/2000/svg" width="43" height="43" fill="#fff" xmlns:v="https://vecta.io/nano"><path d="M21.5 4.426A17.08 17.08 0 0 0 4.426 21.5 17.08 17.08 0 0 0 21.5 38.574 17.08 17.08 0 0 0 38.574 21.5 17.08 17.08 0 0 0 21.5 4.426zm4.773 11.057c0 .473-.225.913-.606 1.19L18.994 21.5l6.674 4.824a1.47 1.47 0 0 1 .606 1.189v2.153a.37.37 0 0 1-.583.298l-11.29-8.17c-.047-.034-.085-.078-.11-.13s-.04-.11-.04-.166.014-.115.04-.166.065-.096.11-.13l11.29-8.17a.37.37 0 0 1 .583.298v2.153z" fill-opacity=".25"/><path d="M21.5.938C10.145.938.938 10.145.938 21.5S10.145 42.063 21.5 42.063A20.57 20.57 0 0 0 42.063 21.5C42.063 10.145 32.855.938 21.5.938zm0 37.637A17.08 17.08 0 0 1 4.426 21.5 17.08 17.08 0 0 1 21.5 4.426 17.08 17.08 0 0 1 38.574 21.5 17.08 17.08 0 0 1 21.5 38.574zm4.2-25.543l-11.3 8.17c-.047.034-.085.078-.1.13a.39.39 0 0 0-.04.166c0 .056.014.115.04.166s.065.096.1.13l11.3 8.17a.37.37 0 0 0 .583-.298v-2.153a1.47 1.47 0 0 0-.606-1.189L18.994 21.5l6.674-4.828c.38-.275.606-.716.606-1.2V13.33a.37.37 0 0 0-.583-.298z" fill-opacity=".8"/></svg>